<?xml version="1.0" standalone="no"?>
<!DOCTYPE svg PUBLIC "-//W3C//DTD SVG 20010904//EN"
 "http://www.w3.org/TR/2001/REC-SVG-20010904/DTD/svg10.dtd">
<svg version="1.0" xmlns="http://www.w3.org/2000/svg"
 width="400.000000pt" height="400.000000pt" viewBox="0 0 400.000000 400.000000"
 preserveAspectRatio="xMidYMid meet">
<metadata>
Created by potrace 1.16, written by Peter Selinger 2001-2019
</metadata>
<g transform="translate(0.000000,400.000000) scale(0.100000,-0.100000)"
fill="#000000" stroke="none">
<path d="M1819 3635 c-129 -14 -299 -46 -369 -69 -134 -43 -247 -93 -282 -124
-25 -21 -24 -78 2 -92 11 -6 20 -15 20 -21 0 -5 -28 -38 -62 -73 -92 -92 -129
-178 -148 -343 -8 -69 -13 -85 -39 -114 -20 -22 -31 -28 -32 -19 -7 76 -48
-372 -48 -520 -1 -99 16 -159 52 -189 10 -7 17 -23 17 -35 0 -13 11 -28 29
-39 37 -22 40 -21 34 3 -5 18 -2 19 28 14 19 -3 46 -10 61 -16 20 -8 34 -6 58
5 l30 16 26 -55 c14 -29 48 -76 75 -103 82 -82 234 -128 432 -132 40 -1 59 -4
42 -6 -45 -7 -79 -43 -40 -43 8 0 21 -15 29 -32 14 -33 14 -33 15 -6 1 23 6
28 52 37 57 13 62 10 94 -56 9 -18 20 -33 24 -33 9 0 32 -51 56 -125 17 -50
52 -231 61 -310 5 -50 4 -58 -7 -47 -19 17 -37 15 -48 -7 -8 -14 -6 -22 9 -36
17 -16 20 -15 40 5 l21 21 -2 -88 c-4 -197 -23 -273 -69 -273 -9 0 -61 13
-115 30 -55 16 -100 28 -100 27 -1 -1 -14 -40 -29 -87 -32 -99 -43 -216 -26
-280 6 -25 14 -55 17 -68 10 -42 -14 -78 -70 -102 -29 -12 -70 -31 -92 -41
-22 -10 -51 -21 -64 -25 -14 -3 -46 -28 -72 -55 -56 -57 -56 -83 0 -106 30
-13 72 -15 261 -9 124 3 248 10 275 16 81 16 85 29 51 178 -14 63 -14 79 -2
125 15 57 14 90 -4 154 -11 37 -10 47 11 90 70 146 135 185 206 124 12 -10 47
-55 77 -100 55 -80 62 -103 57 -174 -1 -15 7 -54 19 -87 21 -60 22 -101 8
-259 -2 -27 2 -38 25 -55 27 -20 42 -21 271 -24 207 -3 244 -1 255 12 10 12
10 18 -1 32 -36 46 -90 92 -143 124 -80 47 -104 93 -105 205 -1 106 -31 245
-77 356 -28 65 -42 89 -53 85 -8 -2 -61 -21 -118 -41 -59 -20 -112 -33 -123
-30 -29 9 -32 42 -25 229 10 241 31 339 108 491 34 66 64 133 68 150 7 34 24
41 63 26 27 -10 27 -11 27 -108 0 -54 -7 -127 -16 -163 -16 -69 -21 -146 -10
-157 4 -4 9 3 13 15 8 31 25 22 37 -19 9 -31 10 -32 13 -9 2 14 9 35 15 47 8
17 7 27 -5 46 -22 34 -37 126 -37 228 0 107 4 119 41 119 16 0 29 4 29 8 0 12
-54 62 -68 62 -7 0 -12 5 -12 10 0 6 34 10 81 10 140 0 273 27 362 73 53 27
121 99 148 158 18 36 28 47 39 43 20 -10 46 -9 103 3 43 10 47 9 47 -8 0 -11
2 -19 5 -19 15 0 55 34 55 47 0 8 16 35 35 60 44 58 49 89 41 242 -16 269 -40
518 -45 459 -2 -28 -16 -21 -45 20 -19 28 -26 51 -26 86 0 63 -35 199 -66 257
-14 25 -46 65 -70 89 -25 24 -54 56 -65 72 l-20 28 25 10 c28 10 35 45 16 80
-16 30 -202 113 -335 149 -234 64 -713 90 -1026 56z m-599 -390 c7 -8 25 -15
41 -15 l28 0 -34 -67 c-48 -96 -61 -135 -80 -246 -15 -80 -20 -95 -31 -86 -14
11 -35 9 -107 -9 -47 -12 -52 -3 -43 71 20 147 64 245 143 317 60 55 65 57 83
35z m1955 -15 c99 -68 165 -210 165 -352 l0 -60 -42 6 c-24 4 -59 8 -78 10
l-35 3 -11 74 c-13 93 -47 201 -79 258 -30 52 -31 61 -5 61 11 0 23 7 26 15 8
20 9 20 59 -15z m205 -518 l27 4 7 -74 c11 -131 10 -132 -23 -126 -23 5 -30 2
-36 -15 -4 -13 -15 -21 -29 -21 -28 0 -36 29 -36 131 0 67 1 69 25 69 21 0 25
5 26 33 1 18 3 24 6 14 4 -14 12 -18 33 -15z m-2380 -14 c0 -12 8 -18 25 -18
24 0 25 -2 25 -69 0 -102 -8 -131 -36 -131 -14 0 -25 8 -29 20 -7 22 -50 28
-58 8 -8 -18 -8 111 -1 163 6 42 7 44 40 44 26 0 34 -4 34 -17z m445 -122
c100 -18 162 -39 246 -83 70 -36 169 -123 169 -148 0 -38 -112 -75 -229 -75
-72 0 -92 4 -145 30 -71 33 -154 108 -179 162 -17 36 -23 109 -10 121 10 11
61 8 148 -7z m1623 -15 c13 -87 -80 -206 -202 -261 -65 -30 -76 -32 -165 -28
-81 2 -105 7 -153 31 -32 16 -58 34 -58 42 0 37 187 168 286 200 74 24 192 44
244 42 39 -2 45 -5 48 -26z"/>
<path d="M1437 973 c-14 -48 -15 -60 -4 -68 14 -10 21 -32 36 -110 9 -46 33
-96 55 -114 9 -8 16 -20 16 -28 0 -10 9 -13 28 -11 26 3 27 5 24 51 -3 39 1
51 19 65 l21 18 -21 39 c-12 22 -21 48 -21 59 0 14 9 9 39 -23 60 -64 93 -51
71 28 -6 23 -7 47 -3 54 4 6 8 24 9 39 2 30 -2 32 -126 48 -128 16 -123 18
-143 -47z"/>
<path d="M2805 1018 c-38 -5 -91 -15 -117 -24 l-47 -15 4 -82 c3 -45 5 -85 5
-89 0 -5 9 -8 20 -8 12 0 32 17 51 43 l31 42 -5 -35 c-3 -19 -9 -48 -13 -63
-5 -24 -3 -29 15 -34 20 -5 22 -11 19 -57 -3 -48 -2 -51 23 -54 22 -3 29 5 57
59 18 34 32 77 32 95 0 31 8 57 32 111 8 15 6 33 -7 67 -10 26 -21 48 -24 49
-3 2 -37 0 -76 -5z"/>
</g>
</svg>
